<svg xmlns="http://www.w3.org/2000/svg" xmlns:xlink="http://www.w3.org/1999/xlink" version="1.1" x="0px" y="0px" viewBox="0 0 64 64" enable-background="new 0 0 64 64" xml:space="preserve" style="max-width:100%" height="100%"><g style="" fill="currentColor"><path fill="currentColor" d="M32.956,1.832c0.002,0.009,0.007,0.027,0.018,0.034L32.8,1.87L32.956,1.832z" style=""></path><path fill="currentColor" d="M59.042,3.503c-0.769-0.779-1.801-1.207-2.891-1.217L7.734,2.092c-2.268,0-4.108,1.84-4.108,4.088   L3.574,20.892c0.109,0.003,0.217,0.017,0.326,0.03c0.374-1.347,1.116-2.532,2.131-3.412L6.07,6.19c0-0.915,0.749-1.655,1.655-1.655   V4.418l0.01,0.117l48.407,0.204c0.438,0,0.857,0.175,1.168,0.487c0.302,0.311,0.477,0.72,0.467,1.158l-0.058,17.998l1.801,0.331   c0.214,0.039,0.428,0.088,0.642,0.146L60.23,6.404C60.24,5.314,59.811,4.282,59.042,3.503z" style=""></path><path fill="currentColor" d="M17.396,9.351l0.05-0.34c0.037-0.287-0.167-0.56-0.457-0.598c-0.34,0.001-0.572,0.192-0.608,0.456   L16.344,9.19c-0.366,2.671-1.914,4.107-4.732,4.404l-0.823,0.084l-0.006,1.42c0.361,0.007,0.722,0.039,1.078,0.097v-0.531   l0.561-0.101C15.332,14.038,17.006,12.285,17.396,9.351z" style=""></path><path fill="currentColor" d="M51.925,22.61l1.069,0.201l-0.033-9.134l-0.812-0.084c-2.83-0.297-4.378-1.731-4.733-4.384l-0.041-0.341   c-0.033-0.259-0.264-0.461-0.536-0.461c-0.36,0.043-0.565,0.317-0.526,0.614l0.04,0.339c0.397,2.924,2.075,4.678,4.983,5.201   l0.559,0.101L51.925,22.61z" style=""></path><path fill="currentColor" d="M29.699,13.492c-0.937,0.471-1.596,1.344-1.809,2.397c-0.205,1.017,0.041,2.071,0.661,2.838l5.733,1.064   c-0.323-0.167-0.657-0.318-0.984-0.466c-0.225-0.102-0.451-0.204-0.674-0.311c-0.185-0.094-0.37-0.18-0.555-0.266   c-0.402-0.187-0.818-0.381-1.199-0.637c-0.705-0.449-0.96-1.396-0.629-2.355c0.244-0.765,0.798-1.135,1.743-1.157l0.067-0.001   c0.935,0,1.597,0.458,1.864,1.289c0.079,0.238,0.119,0.48,0.158,0.712c0.006,0.037,0.012,0.074,0.019,0.111h2.216   c0.019-0.644-0.163-1.385-0.477-1.909c-0.568-0.981-1.504-1.556-2.949-1.813l-0.201-0.036v-1.956H31.67v1.817l-0.163,0.058   c-0.243,0.086-0.482,0.156-0.714,0.224C30.399,13.213,30.027,13.323,29.699,13.492z" style=""></path><path d="M35.616,20.844c0.001,0.01,0.002,0.029,0.012,0.038l-0.178-0.028L35.616,20.844z" style="" fill="currentColor"></path><path fill="currentColor" d="M61.623,29.291c-0.622-0.905-1.558-1.512-2.637-1.709l-47.601-8.818c-0.244-0.044-0.493-0.067-0.74-0.067   c-1.985,0-3.683,1.414-4.038,3.362L1.727,48.513c-0.196,1.078,0.038,2.169,0.658,3.072c0.621,0.904,1.553,1.509,2.625,1.703   l47.631,8.813c0.243,0.045,0.491,0.067,0.737,0.067c0.826,0,1.627-0.252,2.316-0.728c0.896-0.621,1.498-1.553,1.695-2.627   l4.881-26.456C62.472,31.283,62.243,30.194,61.623,29.291z M59.863,31.906l-4.884,26.464c-0.079,0.432-0.32,0.807-0.681,1.058   c-0.354,0.245-0.782,0.341-1.213,0.265L5.452,50.881c-0.89-0.162-1.481-1.027-1.317-1.927L9.016,22.5   c0.143-0.785,0.827-1.355,1.628-1.355c0.1,0,0.2,0.009,0.298,0.027l47.601,8.818c0.434,0.079,0.811,0.323,1.061,0.686   C59.852,31.037,59.945,31.473,59.863,31.906z" style=""></path><path fill="currentColor" d="M19.705,27.307c0.089-0.281-0.066-0.583-0.346-0.673c-0.284-0.094-0.585,0.07-0.673,0.346l-0.103,0.316   c-0.824,2.554-2.581,3.69-5.434,3.474l-0.819-0.062l-2.191,11.859l0.773,0.241c2.538,0.791,4.021,2.784,3.871,5.201l-0.021,0.335   c-0.018,0.295,0.207,0.55,0.502,0.568l0.033,0.682v-0.682c0.281,0,0.516-0.221,0.534-0.502l0.021-0.335   c0.164-2.662-1.358-4.983-3.972-6.056l-0.512-0.21l1.837-9.944h0.568c2.967,0,4.922-1.427,5.831-4.242L19.705,27.307z" style=""></path><path fill="currentColor" d="M53.038,37.99c-2.728-0.795-3.995-2.481-3.873-5.156l0.016-0.334c0.008-0.143-0.042-0.279-0.138-0.385   c-0.096-0.106-0.228-0.168-0.371-0.175c-0.001,0-0.002,0-0.003,0c-0.311,0-0.544,0.228-0.557,0.509l-0.017,0.337   c-0.136,2.957,1.201,4.981,3.973,6.012l0.532,0.198l-1.764,9.958l-0.553,0.017c-2.824,0.088-5.063,1.728-5.841,4.28l-0.099,0.32   c-0.086,0.282,0.074,0.582,0.356,0.668c0.276,0.087,0.585-0.082,0.667-0.355l0.098-0.321c0.71-2.327,2.735-3.673,5.451-3.514   l0.807,0.043l2.104-11.872L53.038,37.99z" style=""></path><path fill="currentColor" d="M31.586,47.397c0.127-0.003,0.25-0.005,0.368-0.006c0.267-0.002,0.518-0.005,0.76-0.037   c1.557-0.202,2.522-0.938,2.951-2.251c0.507-1.596,0.237-2.835-0.824-3.787c-0.417-0.38-0.874-0.696-1.357-1.031   c-0.207-0.144-0.414-0.287-0.618-0.436c-0.154-0.115-0.309-0.225-0.464-0.335c-0.375-0.265-0.762-0.539-1.103-0.871   c-0.611-0.559-0.694-1.534-0.202-2.421c0.373-0.707,0.98-0.977,1.919-0.837c0.962,0.16,1.556,0.736,1.677,1.62   c0.035,0.267,0.03,0.522,0.026,0.793l0,0.047l2.184,0.397c0.132-0.632,0.084-1.395-0.131-1.964   c-0.387-1.064-1.206-1.798-2.579-2.313l-0.19-0.071l0.349-1.919l-0.999-0.182l-0.326,1.792l-0.173,0.025   c-0.239,0.036-0.472,0.06-0.699,0.085c-0.423,0.045-0.822,0.087-1.192,0.195c-1.149,0.337-2.024,1.251-2.341,2.445   c-0.31,1.171-0.012,2.372,0.798,3.213c0.421,0.434,0.949,0.802,1.46,1.158c0.251,0.175,0.502,0.35,0.744,0.533   c0.146,0.108,0.3,0.214,0.454,0.32c0.344,0.236,0.699,0.481,1.01,0.775c0.625,0.593,0.738,1.57,0.281,2.433   c-0.379,0.721-1.068,1.045-1.995,0.903c-0.217-0.025-0.411-0.064-0.601-0.124c-1.049-0.261-1.664-1.12-1.589-2.237   c0.008-0.086,0.013-0.173,0.017-0.261l-2.158-0.393c-0.47,1.977,0.537,3.415,3.15,4.512l0.18,0.076l-0.312,1.714l1.011,0.184   l0.317-1.741L31.586,47.397z" style=""></path></g></svg>