<svg xmlns="http://www.w3.org/2000/svg" viewBox="0 0 64 64" x="0px" y="0px" style="max-width:100%" height="100%"><path d="M57,6H15a5.006,5.006,0,0,0-5,5V50H3a1,1,0,0,0-1,1v2a5.006,5.006,0,0,0,5,5H38.024v5a1,1,0,0,0,1.6.8l3.4-2.55,3.4,2.55a.992.992,0,0,0,.6.2,1.012,1.012,0,0,0,.448-.1,1,1,0,0,0,.552-.9V58H49a5.006,5.006,0,0,0,5-5V14h7a1,1,0,0,0,1-1V11A5.006,5.006,0,0,0,57,6ZM38.024,56H7a3,3,0,0,1-3-3V52H38.024Zm8,5-2.4-1.8a1,1,0,0,0-1.2,0l-2.4,1.8V49.831a2.96,2.96,0,0,0,.58-.011,3.047,3.047,0,0,0,4.816,0,2.979,2.979,0,0,0,.6.011ZM47.31,44.98a1,1,0,0,0-.568,1.372,1.039,1.039,0,0,1-1.38,1.388,1,1,0,0,0-1.373.568,1.036,1.036,0,0,1-1.954,0,1,1,0,0,0-1.373-.568,1.039,1.039,0,0,1-1.38-1.388,1,1,0,0,0-.567-1.372,1.04,1.04,0,0,1,0-1.96,1,1,0,0,0,.567-1.371,1.039,1.039,0,0,1,1.38-1.389,1,1,0,0,0,1.373-.568,1.036,1.036,0,0,1,1.954,0,1,1,0,0,0,1.373.568,1.039,1.039,0,0,1,1.38,1.388,1,1,0,0,0,.568,1.372,1.041,1.041,0,0,1,0,1.96ZM52.923,8.125c-.057.08-.107.165-.159.249a5.02,5.02,0,0,0-.288.53c-.045.1-.087.192-.126.29a5.086,5.086,0,0,0-.186.6c-.023.093-.052.183-.07.278A4.983,4.983,0,0,0,52,11V53a3,3,0,0,1-3,3,2.973,2.973,0,0,1-.976-.184V48.86a3,3,0,0,0,.8-2.45,3.054,3.054,0,0,0,0-4.82,3.05,3.05,0,0,0-3.4-3.41,3.047,3.047,0,0,0-4.816,0,3.051,3.051,0,0,0-3.4,3.41,3.054,3.054,0,0,0,0,4.82,3.005,3.005,0,0,0,.822,2.479V50H12V11a3,3,0,0,1,3-3H53C52.972,8.039,52.951,8.084,52.923,8.125ZM60,12H54V11a3,3,0,0,1,6,0Z" style="" fill="currentColor"></path><rect x="35" y="14" width="4" height="2" style="" fill="currentColor"></rect><rect x="25" y="14" width="8" height="2" style="" fill="currentColor"></rect><rect x="22" y="19" width="20" height="2" style="" fill="currentColor"></rect><rect x="17" y="25" width="5" height="2" style="" fill="currentColor"></rect><rect x="17" y="30" width="11" height="2" style="" fill="currentColor"></rect><rect x="24" y="25" width="23" height="2" style="" fill="currentColor"></rect><rect x="30" y="30" width="17" height="2" style="" fill="currentColor"></rect><rect x="17" y="35" width="20" height="2" style="" fill="currentColor"></rect><rect x="17" y="40" width="17" height="2" style="" fill="currentColor"></rect></svg>