<svg xmlns="http://www.w3.org/2000/svg" xmlns:xlink="http://www.w3.org/1999/xlink" version="1.1" x="0px" y="0px" viewBox="0 0 100 100" enable-background="new 0 0 100 100" xml:space="preserve" style="max-width:100%" height="100%"><path d="M47.14,94.43c-0.078,0-0.156-0.005-0.235-0.014C29.286,92.334,16,73.214,16,49.94C16,27.739,28.096,9.171,44.763,5.79  c0.763-0.155,1.546,0.146,2.007,0.773c0.462,0.626,0.519,1.463,0.146,2.146C44.75,12.672,42.17,19.717,42.17,30.77  c0,10.768,3.994,16.448,7.856,21.942c3.306,4.692,6.144,8.721,6.144,15.558c0,11.234-4.581,20.601-7.312,25.184  C48.494,94.063,47.839,94.43,47.14,94.43z M41.49,10.938C28.99,15.992,20,31.868,20,49.94c0,20.31,11.357,37.686,26.087,40.313  C48.62,85.72,52.17,77.686,52.17,68.27c0-5.569-2.263-8.781-5.395-13.228C42.93,49.573,38.17,42.803,38.17,30.77  C38.17,21.996,39.719,15.499,41.49,10.938z" style="" fill="currentColor"></path><path d="M55.35,94c-0.605,0-1.188-0.275-1.572-0.764c-0.477-0.605-0.563-1.432-0.221-2.122c2.561-5.185,5.613-13.357,5.613-22.845  c0-7.786-3.242-12.387-6.675-17.258C48.89,45.887,45.17,40.598,45.17,30.77c0-16.634,6.018-23.429,7.224-24.622  c0.451-0.447,1.089-0.656,1.717-0.554C71.15,8.275,84,27.34,84,49.94c0,21.838-11.865,40.348-28.213,44.011  C55.642,93.984,55.495,94,55.35,94z M54.554,9.739c-1.607,2.042-5.384,8.206-5.384,21.031c0,8.562,3.054,12.903,6.59,17.93  c3.476,4.933,7.41,10.516,7.41,19.569c0,7.988-1.987,15.086-4.165,20.464C71.388,83.505,80,67.993,80,49.94  C80,29.777,69.135,12.746,54.554,9.739z" style="" fill="currentColor"></path></svg>