<svg aria-hidden="true" style="position: absolute; width: 0; height: 0; overflow: hidden;" version="1.1" xmlns="http://www.w3.org/2000/svg" xmlns:xlink="http://www.w3.org/1999/xlink">
<defs>
<symbol id="icon-facebook" viewBox="0 0 20 20">
<path fill="#1877f2" style="fill: var(--color1, #1877f2)" d="M0 0h20v20h-20v-20z"></path>
<path fill="#fff" style="fill: var(--color2, #fff)" d="M13.891 12.891l0.445-2.891h-2.773v-1.875c0-0.789 0.387-1.563 1.629-1.563h1.262v-2.461s-1.145-0.195-2.238-0.195c-2.285 0-3.777 1.383-3.777 3.891v2.203h-2.539v2.891h2.539v7.109h3.125v-7.109h2.328z"></path>
</symbol>
<symbol id="icon-instagram" viewBox="0 0 20 20">
<path fill="#000" style="fill: var(--color3, #000)" d="M2.222 20h15.556c1.227 0 2.222-0.995 2.222-2.222v0-15.556c0-1.227-0.995-2.222-2.222-2.222v0h-15.556c-1.227 0-2.222 0.995-2.222 2.222v0 15.556c0 1.227 0.995 2.222 2.222 2.222v0z"></path>
<path fill="#fff" style="fill: var(--color2, #fff)" d="M10 3.333c1.811 0 2.037 0.008 2.749 0.040 0.71 0.032 1.194 0.145 1.618 0.31 0.438 0.17 0.81 0.398 1.181 0.769s0.599 0.742 0.769 1.181c0.164 0.424 0.277 0.909 0.31 1.618 0.032 0.711 0.040 0.938 0.040 2.749s-0.008 2.037-0.040 2.749c-0.032 0.71-0.145 1.194-0.31 1.618-0.17 0.438-0.398 0.81-0.769 1.181s-0.742 0.599-1.181 0.769c-0.424 0.164-0.909 0.277-1.618 0.31-0.711 0.032-0.938 0.040-2.749 0.040s-2.038-0.008-2.749-0.040c-0.71-0.032-1.194-0.145-1.618-0.31-0.438-0.17-0.81-0.398-1.181-0.769s-0.599-0.742-0.769-1.181c-0.165-0.424-0.278-0.909-0.31-1.618-0.032-0.711-0.040-0.938-0.040-2.749s0.008-2.037 0.040-2.749c0.032-0.71 0.145-1.194 0.31-1.618 0.17-0.438 0.398-0.81 0.769-1.181s0.742-0.599 1.181-0.769c0.424-0.165 0.909-0.278 1.618-0.31 0.711-0.032 0.938-0.040 2.749-0.040zM10 4.534c-1.78 0-1.991 0.007-2.694 0.039-0.65 0.030-1.003 0.138-1.238 0.23-0.311 0.121-0.533 0.265-0.767 0.499s-0.378 0.456-0.498 0.767c-0.092 0.235-0.2 0.588-0.23 1.238-0.032 0.703-0.039 0.914-0.039 2.694s0.007 1.991 0.039 2.694c0.030 0.65 0.138 1.003 0.23 1.238 0.121 0.311 0.265 0.533 0.499 0.767s0.456 0.377 0.767 0.498c0.235 0.092 0.588 0.2 1.238 0.23 0.703 0.032 0.914 0.039 2.694 0.039s1.991-0.007 2.694-0.039c0.65-0.030 1.003-0.138 1.238-0.23 0.311-0.121 0.533-0.265 0.767-0.499s0.377-0.456 0.498-0.767c0.092-0.235 0.2-0.588 0.23-1.238 0.032-0.703 0.039-0.914 0.039-2.694s-0.007-1.991-0.039-2.694c-0.030-0.65-0.138-1.003-0.23-1.238-0.121-0.311-0.265-0.533-0.499-0.767s-0.456-0.378-0.767-0.498c-0.235-0.092-0.588-0.2-1.238-0.23-0.703-0.032-0.914-0.039-2.694-0.039zM10 6.577c1.891 0 3.423 1.533 3.423 3.423s-1.533 3.423-3.423 3.423c-1.891 0-3.423-1.533-3.423-3.423s1.533-3.423 3.423-3.423zM10 12.222c1.227 0 2.222-0.995 2.222-2.222s-0.995-2.222-2.222-2.222v0c-1.227 0-2.222 0.995-2.222 2.222s0.995 2.222 2.222 2.222v0zM14.359 6.441c0 0.442-0.358 0.8-0.8 0.8s-0.8-0.358-0.8-0.8v0c0-0.442 0.358-0.8 0.8-0.8s0.8 0.358 0.8 0.8v0z"></path>
</symbol>
<symbol id="icon-localization" viewBox="0 0 20 20">
<path d="M10 0c-0.062-0.002-0.136-0.003-0.209-0.003-4.082 0-7.392 3.31-7.392 7.392 0 0.049 0 0.098 0.001 0.146l-0-0.007c0 6.304 7.040 12.136 7.336 12.376 0.069 0.060 0.16 0.096 0.26 0.096s0.191-0.036 0.261-0.096l-0.001 0c0.312-0.28 7.344-6.696 7.344-12.376 0.001-0.041 0.001-0.090 0.001-0.139 0-4.082-3.31-7.392-7.392-7.392-0.074 0-0.147 0.001-0.22 0.003l0.011-0zM10 11.2c-1.988 0-3.6-1.612-3.6-3.6s1.612-3.6 3.6-3.6c1.988 0 3.6 1.612 3.6 3.6v0c0 1.988-1.612 3.6-3.6 3.6v0z"></path>
</symbol>
<symbol id="icon-phone" viewBox="0 0 20 20">
<path d="M18.033 13.622l-2.822-0.322c-0.077-0.010-0.167-0.015-0.258-0.015-0.611 0-1.164 0.248-1.564 0.648l-2.044 2.044c-3.169-1.635-5.687-4.153-7.278-7.229l-0.044-0.093 2.056-2.056c0.478-0.478 0.711-1.144 0.633-1.822l-0.322-2.8c-0.133-1.112-1.071-1.967-2.208-1.967-0.001 0-0.002 0-0.003 0h-1.922c-1.256 0-2.3 1.044-2.222 2.3 0.589 9.489 8.178 17.067 17.656 17.656 1.256 0.078 2.3-0.967 2.3-2.222v-1.922c0.011-1.122-0.833-2.067-1.956-2.2z"></path>
</symbol>
<symbol id="icon-youtube" viewBox="0 0 20 20">
<path fill="#ff0002" style="fill: var(--color4, #ff0002)" d="M2.222 20h15.556c1.227 0 2.222-0.995 2.222-2.222v0-15.556c0-1.227-0.995-2.222-2.222-2.222v0h-15.556c-1.227 0-2.222 0.995-2.222 2.222v0 15.556c0 1.227 0.995 2.222 2.222 2.222v0z"></path>
<path fill="#fff" style="fill: var(--color2, #fff)" d="M8.623 11.742l-0.001-3.773 3.603 1.893-3.602 1.88zM16.533 7.315s-0.131-0.925-0.53-1.333c-0.507-0.535-1.076-0.537-1.336-0.569-1.866-0.136-4.664-0.136-4.664-0.136h-0.006s-2.799 0-4.664 0.136c-0.261 0.031-0.829 0.033-1.336 0.568-0.4 0.407-0.53 1.333-0.53 1.333s-0.133 1.087-0.133 2.173v1.019c0 1.087 0.133 2.173 0.133 2.173s0.13 0.925 0.529 1.333c0.508 0.535 1.174 0.518 1.471 0.574 1.067 0.103 4.533 0.135 4.533 0.135s2.802-0.004 4.668-0.14c0.261-0.031 0.829-0.034 1.336-0.569 0.399-0.408 0.53-1.333 0.53-1.333s0.133-1.086 0.133-2.173v-1.019c0-1.086-0.133-2.173-0.133-2.173z"></path>
</symbol>
<symbol id="icon-logo" viewBox="0 0 127 32">
<path fill="#333" style="fill: var(--color1, #333)" opacity="0.45" d="M11.482 28.759c-0.020 0.281-0.124 0.503-0.312 0.664-0.187 0.162-0.433 0.242-0.74 0.242-0.335 0-0.599-0.113-0.792-0.338-0.192-0.226-0.287-0.536-0.287-0.93v-0.16c0-0.251 0.044-0.473 0.133-0.664s0.215-0.338 0.379-0.44c0.165-0.103 0.357-0.154 0.575-0.154 0.302 0 0.545 0.081 0.729 0.242s0.291 0.389 0.32 0.681h-0.539c-0.013-0.169-0.060-0.291-0.142-0.366-0.080-0.077-0.203-0.115-0.368-0.115-0.18 0-0.314 0.065-0.404 0.194-0.089 0.128-0.134 0.327-0.136 0.598v0.198c0 0.283 0.043 0.489 0.127 0.62 0.086 0.131 0.222 0.196 0.406 0.196 0.166 0 0.29-0.038 0.372-0.113 0.083-0.077 0.13-0.195 0.142-0.354h0.539zM15.547 28.381c0 0.257-0.046 0.483-0.136 0.677s-0.222 0.344-0.392 0.449c-0.169 0.105-0.363 0.158-0.582 0.158-0.217 0-0.41-0.052-0.58-0.156s-0.302-0.253-0.395-0.445c-0.093-0.194-0.141-0.417-0.142-0.668v-0.129c0-0.257 0.046-0.484 0.138-0.679 0.093-0.196 0.225-0.347 0.393-0.451 0.17-0.105 0.364-0.158 0.582-0.158s0.411 0.053 0.58 0.158c0.17 0.104 0.301 0.254 0.393 0.451 0.093 0.195 0.14 0.421 0.14 0.677v0.117zM15.001 28.263c0-0.274-0.049-0.483-0.147-0.625s-0.238-0.214-0.42-0.214c-0.181 0-0.32 0.071-0.418 0.212-0.098 0.14-0.148 0.346-0.149 0.618v0.128c0 0.267 0.049 0.474 0.147 0.621s0.239 0.221 0.424 0.221c0.181 0 0.32-0.071 0.417-0.212 0.097-0.142 0.146-0.35 0.147-0.621v-0.128zM19.075 28.561h-1.034v1.069h-0.539v-2.615h1.703v0.436h-1.164v0.675h1.034v0.435zM22.653 28.561h-1.034v1.069h-0.539v-2.615h1.703v0.436h-1.164v0.675h1.034v0.435zM26.231 28.496h-1.035v0.7h1.214v0.433h-1.753v-2.615h1.749v0.436h-1.21v0.623h1.035v0.422zM29.864 28.496h-1.035v0.7h1.214v0.433h-1.753v-2.615h1.749v0.436h-1.21v0.623h1.035v0.422zM35.106 27.015l0.672 1.897 0.668-1.897h0.708v2.615h-0.541v-0.715l0.054-1.234-0.706 1.949h-0.37l-0.704-1.947 0.054 1.232v0.715h-0.539v-2.615h0.704zM40.695 29.091h-0.945l-0.18 0.539h-0.573l0.973-2.615h0.499l0.979 2.615h-0.573l-0.181-0.539zM39.896 28.654h0.654l-0.329-0.979-0.325 0.979zM45.27 28.759c-0.020 0.281-0.124 0.503-0.312 0.664-0.187 0.162-0.434 0.242-0.74 0.242-0.335 0-0.599-0.113-0.792-0.338-0.192-0.226-0.287-0.536-0.287-0.93v-0.16c0-0.251 0.044-0.473 0.133-0.664s0.215-0.338 0.379-0.44c0.166-0.103 0.357-0.154 0.575-0.154 0.302 0 0.545 0.081 0.729 0.242s0.291 0.389 0.32 0.681h-0.539c-0.014-0.169-0.060-0.291-0.142-0.366-0.080-0.077-0.203-0.115-0.368-0.115-0.18 0-0.314 0.065-0.404 0.194-0.089 0.128-0.134 0.327-0.136 0.598v0.198c0 0.283 0.042 0.489 0.127 0.62 0.086 0.131 0.221 0.196 0.406 0.196 0.166 0 0.29-0.038 0.372-0.113 0.083-0.077 0.13-0.195 0.142-0.354h0.539zM49.316 29.63h-0.539v-1.121h-1.051v1.121h-0.539v-2.615h0.539v1.060h1.051v-1.060h0.539v2.615zM51.924 29.63h-0.539v-2.615h0.539v2.615zM56.115 29.63h-0.539l-1.049-1.721v1.721h-0.539v-2.615h0.539l1.051 1.724v-1.724h0.537v2.615zM59.722 28.496h-1.034v0.7h1.214v0.433h-1.753v-2.615h1.749v0.436h-1.211v0.623h1.034v0.422zM65.228 28.672h-0.429v0.957h-0.539v-2.615h0.972c0.309 0 0.547 0.069 0.715 0.206s0.251 0.332 0.251 0.584c0 0.178-0.039 0.327-0.117 0.447-0.076 0.119-0.193 0.213-0.35 0.284l0.566 1.069v0.025h-0.578l-0.49-0.957zM64.799 28.236h0.434c0.135 0 0.24-0.034 0.314-0.102 0.074-0.069 0.112-0.165 0.112-0.286 0-0.123-0.036-0.22-0.106-0.291-0.069-0.071-0.177-0.106-0.321-0.106h-0.433v0.785zM69.746 28.496h-1.034v0.7h1.214v0.433h-1.753v-2.615h1.75v0.436h-1.211v0.623h1.034v0.422zM73.931 29.63h-0.539l-1.049-1.721v1.721h-0.539v-2.615h0.539l1.051 1.724v-1.724h0.537v2.615zM77.879 27.451h-0.801v2.179h-0.539v-2.179h-0.79v-0.436h2.13v0.436zM81.012 29.091h-0.945l-0.179 0.539h-0.573l0.974-2.615h0.499l0.979 2.615h-0.573l-0.181-0.539zM80.213 28.654h0.654l-0.329-0.979-0.325 0.979zM84.113 29.197h1.144v0.433h-1.683v-2.615h0.539v2.182zM89.504 28.926c0-0.121 0.034-0.233 0.101-0.336 0.068-0.103 0.193-0.217 0.374-0.343-0.078-0.104-0.139-0.202-0.183-0.293-0.045-0.092-0.067-0.188-0.067-0.287 0-0.204 0.064-0.369 0.192-0.496 0.129-0.128 0.303-0.192 0.521-0.192 0.195 0 0.355 0.058 0.479 0.174 0.126 0.116 0.189 0.261 0.189 0.435 0 0.208-0.105 0.392-0.316 0.551l-0.201 0.145 0.451 0.524c0.071-0.139 0.106-0.292 0.106-0.46h0.442c0 0.34-0.078 0.615-0.235 0.826l0.392 0.454h-0.589l-0.134-0.154c-0.193 0.127-0.414 0.19-0.665 0.19-0.259 0-0.466-0.068-0.622-0.203-0.156-0.137-0.233-0.316-0.233-0.537zM90.384 29.249c0.125 0 0.243-0.035 0.354-0.104l-0.515-0.596-0.038 0.027c-0.107 0.091-0.16 0.198-0.16 0.321 0 0.104 0.033 0.189 0.099 0.255 0.067 0.065 0.154 0.097 0.26 0.097zM90.193 27.659c0 0.090 0.053 0.203 0.158 0.339l0.139-0.092c0.070-0.046 0.119-0.090 0.145-0.133s0.041-0.095 0.041-0.154-0.022-0.112-0.067-0.156c-0.044-0.044-0.101-0.066-0.17-0.066-0.074 0-0.134 0.024-0.18 0.072-0.044 0.048-0.067 0.111-0.067 0.19zM97.422 28.944c0-0.102-0.036-0.18-0.108-0.233-0.072-0.055-0.201-0.113-0.388-0.172-0.187-0.061-0.335-0.121-0.444-0.18-0.297-0.16-0.445-0.377-0.445-0.648 0-0.141 0.040-0.267 0.119-0.377 0.081-0.111 0.195-0.198 0.343-0.26 0.15-0.062 0.317-0.093 0.503-0.093 0.187 0 0.353 0.034 0.499 0.102 0.146 0.067 0.259 0.162 0.34 0.286s0.122 0.263 0.122 0.42h-0.539c0-0.12-0.038-0.213-0.113-0.278-0.075-0.067-0.181-0.101-0.318-0.101-0.132 0-0.234 0.028-0.307 0.084-0.073 0.055-0.11 0.128-0.11 0.219 0 0.085 0.043 0.156 0.127 0.214 0.086 0.057 0.213 0.111 0.379 0.162 0.306 0.092 0.53 0.207 0.67 0.343s0.21 0.306 0.21 0.51c0 0.226-0.085 0.404-0.257 0.533-0.171 0.128-0.402 0.192-0.692 0.192-0.201 0-0.384-0.037-0.55-0.11-0.165-0.074-0.291-0.175-0.379-0.304-0.086-0.128-0.129-0.277-0.129-0.445h0.54c0 0.289 0.172 0.433 0.517 0.433 0.128 0 0.228-0.026 0.3-0.077 0.072-0.053 0.108-0.126 0.108-0.219zM101.872 27.015v1.722c0 0.286-0.090 0.512-0.27 0.679-0.178 0.166-0.423 0.25-0.733 0.25-0.305 0-0.548-0.081-0.727-0.242s-0.271-0.384-0.275-0.666v-1.742h0.539v1.726c0 0.171 0.040 0.296 0.122 0.375 0.083 0.078 0.197 0.117 0.341 0.117 0.303 0 0.457-0.159 0.462-0.478v-1.74h0.541zM104.415 28.708v0.921h-0.539v-2.615h1.020c0.196 0 0.369 0.036 0.517 0.108 0.15 0.072 0.265 0.174 0.345 0.307 0.080 0.132 0.121 0.282 0.121 0.451 0 0.256-0.088 0.459-0.264 0.607-0.175 0.147-0.417 0.221-0.727 0.221h-0.472zM104.415 28.272h0.481c0.142 0 0.251-0.034 0.325-0.101 0.076-0.067 0.113-0.163 0.113-0.287 0-0.128-0.038-0.232-0.113-0.311s-0.179-0.12-0.312-0.122h-0.494v0.821zM108.353 28.708v0.921h-0.539v-2.615h1.020c0.197 0 0.369 0.036 0.517 0.108 0.15 0.072 0.264 0.174 0.345 0.307 0.080 0.132 0.12 0.282 0.12 0.451 0 0.256-0.088 0.459-0.264 0.607-0.175 0.147-0.417 0.221-0.727 0.221h-0.472zM108.353 28.272h0.481c0.143 0 0.251-0.034 0.325-0.101s0.113-0.163 0.113-0.287c0-0.128-0.038-0.232-0.113-0.311s-0.18-0.12-0.313-0.122h-0.494v0.821zM112.29 29.197h1.144v0.433h-1.683v-2.615h0.539v2.182zM115.881 29.63h-0.539v-2.615h0.539v2.615zM119.519 28.496h-1.034v0.7h1.214v0.433h-1.753v-2.615h1.749v0.436h-1.211v0.623h1.034v0.422zM122.934 28.944c0-0.102-0.036-0.18-0.108-0.233-0.072-0.055-0.201-0.113-0.388-0.172-0.187-0.061-0.335-0.121-0.443-0.18-0.297-0.16-0.445-0.377-0.445-0.648 0-0.141 0.040-0.267 0.119-0.377 0.080-0.111 0.195-0.198 0.343-0.26 0.15-0.062 0.318-0.093 0.503-0.093 0.187 0 0.353 0.034 0.499 0.102 0.146 0.067 0.26 0.162 0.34 0.286 0.081 0.123 0.122 0.263 0.122 0.42h-0.539c0-0.12-0.038-0.213-0.113-0.278-0.076-0.067-0.181-0.101-0.318-0.101-0.132 0-0.234 0.028-0.307 0.084-0.073 0.055-0.11 0.128-0.11 0.219 0 0.085 0.043 0.156 0.127 0.214 0.086 0.057 0.213 0.111 0.379 0.162 0.306 0.092 0.53 0.207 0.67 0.343s0.21 0.306 0.21 0.51c0 0.226-0.086 0.404-0.257 0.533-0.171 0.128-0.402 0.192-0.692 0.192-0.201 0-0.384-0.037-0.549-0.11-0.166-0.074-0.292-0.175-0.379-0.304-0.086-0.128-0.129-0.277-0.129-0.445h0.541c0 0.289 0.172 0.433 0.517 0.433 0.128 0 0.228-0.026 0.3-0.077 0.072-0.053 0.108-0.126 0.108-0.219z"></path>
<path fill="#000" style="fill: var(--color2, #000)" d="M3.446 14.356c-1.9 0-3.446-1.546-3.446-3.446s1.546-3.446 3.446-3.446h6.113c0.227 0 0.41 0.184 0.41 0.41s-0.184 0.41-0.41 0.41h-4.87v2.079c0 0.001 0 0.002 0 0.002 0 2.463 1.068 4.676 2.765 6.203l0.008 0.007h7.924c-0.012-0.012-0.024-0.023-0.036-0.035-0.475-0.475-0.774-1.074-0.841-1.687-0.071-0.647 0.119-1.234 0.537-1.651 0.661-0.661 1.735-0.714 2.652-0.212 0.281-0.847 0.424-1.728 0.424-2.626v-2.079h-4.87c-0.227 0-0.41-0.184-0.41-0.41s0.184-0.41 0.41-0.41h5.281c0.227 0 0.41 0.184 0.41 0.41v2.49c0 1.079-0.188 2.135-0.557 3.144 0.474 0.475 0.772 1.073 0.84 1.686 0.057 0.518-0.054 0.997-0.315 1.382h1.685c0.227 0 0.41 0.184 0.41 0.41 0 1.312-1.068 2.38-2.38 2.38h-1.272c-0.191 0.935-1.020 1.641-2.010 1.641h-7.877c-0.991 0-1.82-0.706-2.010-1.641h-1.272c-1.312 0-2.38-1.068-2.38-2.38 0-0.227 0.184-0.41 0.41-0.41h4.079c-0.59-0.639-1.095-1.369-1.487-2.165l-0.024-0.054-1.337-0zM15.325 14.763c0.047 0.429 0.262 0.854 0.606 1.197v0c0.343 0.343 0.769 0.558 1.197 0.606 0.154 0.017 0.301 0.011 0.437-0.017 0.043-0.511-0.288-0.995-0.8-1.129-0.677-0.176-1.173-0.699-1.349-1.329-0.086 0.195-0.118 0.424-0.091 0.671zM18.41 15.283c-0.047-0.429-0.262-0.854-0.606-1.197-0.405-0.405-0.911-0.618-1.365-0.618-0.092 0-0.183 0.009-0.269 0.027-0.043 0.512 0.287 0.997 0.8 1.131 0.677 0.176 1.173 0.699 1.349 1.329 0.086-0.195 0.118-0.424 0.091-0.672zM4.185 18.545h1.641c0.227 0 0.41 0.184 0.41 0.41 0 0.679 0.552 1.231 1.231 1.231h7.877c0.679 0 1.231-0.552 1.231-1.231 0-0.227 0.184-0.41 0.41-0.41h1.641c0.718 0 1.324-0.488 1.504-1.149h-17.45c0.181 0.661 0.787 1.149 1.504 1.149zM3.446 8.284c-1.448 0-2.626 1.178-2.626 2.626s1.178 2.626 2.626 2.626h0.989c-0.1-0.257-0.203-0.586-0.288-0.921l-0.014-0.063h-0.687c-0.905 0-1.641-0.736-1.641-1.641s0.736-1.641 1.641-1.641h0.422v-0.985h-0.422zM3.869 10.089h-0.422c-0.453 0-0.821 0.368-0.821 0.821s0.368 0.821 0.821 0.821h0.526c-0.065-0.411-0.103-0.884-0.103-1.367v-0.274z"></path>
<path fill="#c00407" style="fill: var(--color3, #c00407)" d="M8.386 5.741c0.16 0.16 0.16 0.42 0 0.58-0.074 0.074-0.176 0.12-0.29 0.12-0 0-0 0-0.001 0h0c-0.105 0-0.21-0.040-0.29-0.12-0.724-0.725-0.724-1.903 0-2.628 0.196-0.196 0.304-0.457 0.304-0.734s-0.108-0.538-0.304-0.734c-0.16-0.16-0.16-0.42 0-0.58s0.42-0.16 0.58 0c0.351 0.351 0.544 0.818 0.544 1.314s-0.193 0.963-0.544 1.314c-0.405 0.405-0.405 1.063-0 1.467zM15.006 5.741c0.16 0.16 0.16 0.42 0 0.58-0.074 0.074-0.176 0.12-0.29 0.12-0 0-0 0-0.001 0h0c-0.105 0-0.21-0.040-0.29-0.12-0.724-0.725-0.724-1.903 0-2.628 0.405-0.405 0.405-1.063 0-1.467-0.16-0.16-0.16-0.42 0-0.58s0.42-0.16 0.58 0c0.724 0.724 0.724 1.903 0 2.628-0.405 0.405-0.405 1.063-0 1.467zM11.696 5.741c0.16 0.16 0.16 0.42 0 0.58-0.074 0.074-0.176 0.12-0.29 0.12-0 0-0 0-0.001 0h0c-0 0-0 0-0 0-0.113 0-0.216-0.046-0.29-0.12v0c-0.935-0.935-0.935-2.456 0-3.391 0.298-0.298 0.462-0.694 0.462-1.115s-0.164-0.817-0.462-1.115c-0.16-0.16-0.16-0.42 0-0.58s0.42-0.16 0.58 0c0.453 0.453 0.702 1.055 0.702 1.695s-0.249 1.242-0.702 1.695c-0.615 0.615-0.615 1.615-0 2.23z"></path>
<path fill="#000" style="fill: var(--color2, #000)" d="M11.406 7.464c0.108 0 0.214 0.043 0.29 0.12 0.074 0.075 0.12 0.177 0.12 0.29v0c0 0.108-0.044 0.214-0.12 0.29-0.074 0.074-0.177 0.12-0.29 0.12h-0c-0.108 0-0.214-0.044-0.29-0.12-0.074-0.074-0.12-0.177-0.12-0.29v-0c0-0.108 0.044-0.214 0.12-0.29 0.074-0.074 0.177-0.12 0.29-0.12h0z"></path>
<path fill="#c00407" style="fill: var(--color3, #c00407)" d="M25.66 13.294c0-1.020 0.221-1.927 0.662-2.722 0.441-0.804 1.054-1.427 1.839-1.868 0.794-0.451 1.692-0.677 2.692-0.677 1.226 0 2.276 0.324 3.149 0.971s1.457 1.53 1.751 2.648h-2.766c-0.206-0.432-0.5-0.76-0.883-0.986-0.373-0.226-0.799-0.338-1.28-0.338-0.775 0-1.403 0.27-1.883 0.809s-0.721 1.26-0.721 2.163c0 0.902 0.24 1.623 0.721 2.163s1.108 0.809 1.883 0.809c0.481 0 0.907-0.113 1.28-0.338 0.383-0.226 0.677-0.554 0.883-0.986h2.766c-0.294 1.118-0.878 2.001-1.751 2.648-0.873 0.638-1.922 0.956-3.148 0.956-1 0-1.898-0.221-2.692-0.662-0.785-0.451-1.398-1.074-1.839-1.869s-0.662-1.702-0.662-2.722zM41.031 18.59c-0.804 0-1.53-0.172-2.178-0.515-0.638-0.343-1.143-0.834-1.515-1.471-0.363-0.638-0.544-1.383-0.544-2.236 0-0.844 0.186-1.584 0.559-2.222 0.373-0.647 0.883-1.143 1.53-1.486s1.373-0.515 2.178-0.515c0.804 0 1.53 0.172 2.177 0.515s1.157 0.839 1.53 1.486c0.373 0.638 0.559 1.378 0.559 2.222s-0.191 1.589-0.574 2.236c-0.373 0.638-0.888 1.128-1.545 1.471-0.647 0.343-1.373 0.515-2.177 0.515zM41.031 16.413c0.481 0 0.888-0.177 1.221-0.53 0.343-0.353 0.515-0.858 0.515-1.515s-0.167-1.162-0.5-1.515c-0.324-0.353-0.726-0.53-1.206-0.53-0.49 0-0.898 0.177-1.221 0.53-0.324 0.343-0.486 0.848-0.486 1.515 0 0.657 0.157 1.162 0.471 1.515 0.324 0.353 0.726 0.53 1.206 0.53zM50.782 12.352h-1.354v6.12h-2.516v-6.12h-0.912v-2.089h0.912v-0.235c0-1.010 0.289-1.775 0.868-2.295 0.579-0.53 1.427-0.794 2.545-0.794 0.186 0 0.324 0.005 0.412 0.015v2.133c-0.481-0.029-0.819 0.039-1.015 0.206s-0.294 0.466-0.294 0.897v0.074h1.354v2.089zM56.083 12.352h-1.354v6.12h-2.516v-6.12h-0.912v-2.089h0.912v-0.235c0-1.010 0.289-1.775 0.868-2.295 0.579-0.53 1.427-0.794 2.545-0.794 0.186 0 0.324 0.005 0.412 0.015v2.133c-0.481-0.029-0.819 0.039-1.015 0.206s-0.294 0.466-0.294 0.897v0.074h1.354v2.089zM65.004 14.235c0 0.235-0.015 0.481-0.044 0.736h-5.694c0.039 0.51 0.201 0.902 0.486 1.177 0.294 0.265 0.652 0.397 1.074 0.397 0.628 0 1.064-0.265 1.309-0.794h2.678c-0.137 0.539-0.387 1.025-0.75 1.457-0.353 0.432-0.799 0.77-1.339 1.015s-1.143 0.368-1.81 0.368c-0.804 0-1.52-0.172-2.148-0.515s-1.118-0.834-1.471-1.471c-0.353-0.638-0.53-1.383-0.53-2.236s0.172-1.599 0.515-2.236c0.353-0.638 0.844-1.128 1.471-1.471s1.349-0.515 2.163-0.515c0.794 0 1.501 0.167 2.119 0.5s1.099 0.809 1.442 1.427c0.353 0.618 0.53 1.339 0.53 2.163zM62.429 13.573c0-0.432-0.147-0.775-0.441-1.030s-0.662-0.383-1.103-0.383c-0.422 0-0.78 0.123-1.074 0.368-0.284 0.245-0.461 0.593-0.53 1.045h3.148zM74.070 14.235c0 0.235-0.015 0.481-0.044 0.736h-5.694c0.039 0.51 0.201 0.902 0.486 1.177 0.294 0.265 0.652 0.397 1.074 0.397 0.628 0 1.064-0.265 1.309-0.794h2.678c-0.137 0.539-0.387 1.025-0.75 1.457-0.353 0.432-0.799 0.77-1.339 1.015s-1.143 0.368-1.81 0.368c-0.804 0-1.52-0.172-2.148-0.515s-1.118-0.834-1.471-1.471c-0.353-0.638-0.53-1.383-0.53-2.236s0.172-1.599 0.515-2.236c0.353-0.638 0.844-1.128 1.471-1.471s1.349-0.515 2.163-0.515c0.794 0 1.501 0.167 2.119 0.5s1.099 0.809 1.442 1.427c0.353 0.618 0.53 1.339 0.53 2.163zM71.496 13.573c0-0.432-0.147-0.775-0.441-1.030s-0.662-0.383-1.103-0.383c-0.422 0-0.78 0.123-1.074 0.368-0.284 0.245-0.461 0.593-0.53 1.045h3.148z"></path>
<path fill="#000" style="fill: var(--color2, #000)" d="M82.252 18.576c-0.755 0-1.432-0.123-2.030-0.368s-1.079-0.608-1.442-1.089c-0.353-0.481-0.539-1.059-0.559-1.736h2.678c0.039 0.383 0.172 0.677 0.397 0.883 0.226 0.196 0.52 0.294 0.883 0.294 0.373 0 0.667-0.083 0.883-0.25 0.216-0.177 0.324-0.417 0.324-0.721 0-0.255-0.088-0.466-0.265-0.633-0.167-0.167-0.378-0.304-0.633-0.412-0.245-0.108-0.598-0.23-1.059-0.368-0.667-0.206-1.211-0.412-1.633-0.618s-0.785-0.51-1.089-0.912c-0.304-0.402-0.456-0.927-0.456-1.574 0-0.961 0.348-1.712 1.045-2.251 0.696-0.549 1.604-0.824 2.722-0.824 1.138 0 2.055 0.275 2.751 0.824 0.696 0.539 1.069 1.295 1.118 2.266h-2.722c-0.020-0.334-0.142-0.593-0.368-0.78-0.226-0.196-0.515-0.294-0.868-0.294-0.304 0-0.549 0.083-0.736 0.25-0.186 0.157-0.28 0.387-0.28 0.691 0 0.334 0.157 0.593 0.471 0.78s0.804 0.387 1.471 0.603c0.667 0.226 1.206 0.441 1.618 0.647 0.422 0.206 0.785 0.505 1.089 0.897s0.456 0.897 0.456 1.515c0 0.588-0.152 1.123-0.456 1.604-0.294 0.481-0.726 0.863-1.295 1.148s-1.241 0.427-2.016 0.427zM90.083 11.425c0.245-0.383 0.584-0.691 1.015-0.927s0.937-0.353 1.515-0.353c0.677 0 1.29 0.172 1.839 0.515s0.981 0.834 1.295 1.471c0.324 0.638 0.486 1.378 0.486 2.222s-0.162 1.589-0.486 2.236c-0.314 0.638-0.745 1.133-1.295 1.486-0.549 0.343-1.162 0.515-1.839 0.515-0.569 0-1.074-0.118-1.515-0.353-0.432-0.235-0.77-0.539-1.015-0.912v5.061h-2.516v-12.123h2.516v1.162zM93.673 14.353c0-0.628-0.177-1.118-0.53-1.471-0.343-0.363-0.77-0.544-1.28-0.544-0.5 0-0.927 0.181-1.28 0.544-0.343 0.363-0.515 0.858-0.515 1.486s0.172 1.123 0.515 1.486c0.353 0.363 0.78 0.544 1.28 0.544s0.927-0.181 1.28-0.544c0.353-0.373 0.53-0.873 0.53-1.501zM97.052 14.353c0-0.844 0.157-1.584 0.471-2.222 0.324-0.638 0.76-1.128 1.309-1.471s1.162-0.515 1.839-0.515c0.579 0 1.084 0.118 1.515 0.353 0.441 0.235 0.78 0.544 1.015 0.927v-1.162h2.516v8.21h-2.516v-1.162c-0.245 0.383-0.588 0.692-1.030 0.927-0.432 0.235-0.937 0.353-1.515 0.353-0.667 0-1.275-0.172-1.824-0.515-0.549-0.353-0.986-0.848-1.309-1.486-0.314-0.647-0.471-1.393-0.471-2.236zM103.202 14.368c0-0.628-0.177-1.123-0.53-1.486-0.343-0.363-0.765-0.544-1.265-0.544s-0.927 0.181-1.28 0.544c-0.343 0.353-0.515 0.844-0.515 1.471s0.172 1.128 0.515 1.501c0.353 0.363 0.78 0.544 1.28 0.544s0.922-0.181 1.265-0.544c0.353-0.363 0.53-0.858 0.53-1.486zM107.038 14.368c0-0.853 0.172-1.599 0.515-2.236 0.353-0.638 0.839-1.128 1.457-1.471 0.628-0.343 1.344-0.515 2.148-0.515 1.030 0 1.888 0.27 2.575 0.809 0.696 0.539 1.153 1.3 1.368 2.28h-2.678c-0.226-0.628-0.662-0.942-1.309-0.942-0.461 0-0.829 0.181-1.103 0.544-0.275 0.353-0.412 0.863-0.412 1.53s0.137 1.182 0.412 1.545c0.275 0.353 0.642 0.53 1.103 0.53 0.647 0 1.084-0.314 1.309-0.942h2.678c-0.216 0.961-0.672 1.716-1.368 2.266s-1.555 0.824-2.575 0.824c-0.804 0-1.52-0.172-2.148-0.515-0.618-0.343-1.103-0.834-1.457-1.471-0.343-0.638-0.515-1.383-0.515-2.236zM124.185 14.235c0 0.235-0.015 0.481-0.044 0.736h-5.694c0.039 0.51 0.201 0.902 0.486 1.177 0.294 0.265 0.652 0.397 1.074 0.397 0.628 0 1.064-0.265 1.309-0.794h2.678c-0.137 0.539-0.387 1.025-0.75 1.457-0.353 0.432-0.799 0.77-1.339 1.015s-1.143 0.368-1.81 0.368c-0.804 0-1.52-0.172-2.148-0.515s-1.118-0.834-1.471-1.471c-0.353-0.638-0.53-1.383-0.53-2.236s0.172-1.599 0.515-2.236c0.353-0.638 0.844-1.128 1.471-1.471s1.349-0.515 2.163-0.515c0.794 0 1.501 0.167 2.119 0.5s1.099 0.809 1.442 1.427c0.353 0.618 0.53 1.339 0.53 2.163zM121.611 13.573c0-0.432-0.147-0.775-0.441-1.030s-0.662-0.383-1.103-0.383c-0.422 0-0.78 0.123-1.074 0.368-0.284 0.245-0.461 0.593-0.53 1.045h3.148z"></path>
<path fill="#c00407" style="fill: var(--color3, #c00407)" d="M6.498 28.853c0 0.361-0.293 0.654-0.654 0.654s-0.654-0.293-0.654-0.654c0-0.361 0.293-0.654 0.654-0.654s0.654 0.293 0.654 0.654z"></path>
<path fill="#c00407" style="fill: var(--color3, #c00407)" d="M127.142 28.199c0 0.361-0.293 0.654-0.654 0.654s-0.654-0.293-0.654-0.654c0-0.361 0.293-0.654 0.654-0.654s0.654 0.293 0.654 0.654z"></path>
</symbol>
</defs>
</svg>
