<svg width="3111" height="783" viewBox="0 0 3111 783" fill="none" xmlns="http://www.w3.org/2000/svg">
<path d="M280.941 703.687C280.443 710.571 277.895 715.991 273.295 719.946C268.725 723.901 262.689 725.879 255.189 725.879C246.986 725.879 240.526 723.125 235.81 717.617C231.122 712.08 228.778 704.492 228.778 694.854V690.942C228.778 684.79 229.862 679.37 232.03 674.683C234.198 669.995 237.289 666.406 241.303 663.916C245.346 661.396 250.033 660.137 255.365 660.137C262.748 660.137 268.695 662.114 273.207 666.069C277.719 670.024 280.326 675.576 281.029 682.725H267.846C267.523 678.594 266.366 675.605 264.374 673.76C262.411 671.885 259.408 670.947 255.365 670.947C250.971 670.947 247.675 672.529 245.478 675.693C243.31 678.828 242.196 683.706 242.138 690.327V695.161C242.138 702.075 243.178 707.129 245.258 710.322C247.367 713.516 250.678 715.112 255.189 715.112C259.262 715.112 262.294 714.189 264.286 712.344C266.308 710.469 267.465 707.583 267.758 703.687H280.941ZM380.407 694.458C380.407 700.757 379.294 706.279 377.067 711.025C374.841 715.771 371.647 719.434 367.487 722.012C363.356 724.59 358.61 725.879 353.249 725.879C347.946 725.879 343.215 724.604 339.055 722.056C334.895 719.507 331.672 715.874 329.387 711.157C327.102 706.411 325.944 700.962 325.915 694.81V691.646C325.915 685.347 327.043 679.81 329.299 675.034C331.584 670.229 334.792 666.553 338.923 664.004C343.083 661.426 347.829 660.137 353.161 660.137C358.493 660.137 363.225 661.426 367.355 664.004C371.516 666.553 374.724 670.229 376.979 675.034C379.265 679.81 380.407 685.332 380.407 691.602V694.458ZM367.048 691.558C367.048 684.849 365.847 679.751 363.444 676.265C361.042 672.778 357.614 671.035 353.161 671.035C348.737 671.035 345.324 672.764 342.922 676.221C340.52 679.648 339.304 684.688 339.274 691.338V694.458C339.274 700.991 340.476 706.06 342.878 709.663C345.28 713.267 348.737 715.068 353.249 715.068C357.673 715.068 361.071 713.34 363.444 709.883C365.817 706.396 367.019 701.328 367.048 694.678V691.558ZM466.733 698.853H441.421V725H428.237V661.016H469.897V671.694H441.421V688.218H466.733V698.853ZM554.29 698.853H528.978V725H515.794V661.016H557.454V671.694H528.978V688.218H554.29V698.853ZM641.847 697.271H616.534V714.409H646.241V725H603.351V661.016H646.153V671.694H616.534V686.943H641.847V697.271ZM730.722 697.271H705.409V714.409H735.116V725H692.226V661.016H735.028V671.694H705.409V686.943H730.722V697.271ZM858.989 661.016L875.425 707.422L891.772 661.016H909.087V725H895.859V707.51L897.178 677.319L879.907 725H870.854L853.628 677.363L854.946 707.51V725H841.763V661.016H858.989ZM995.765 711.816H972.649L968.255 725H954.236L978.055 661.016H990.271L1014.22 725H1000.2L995.765 711.816ZM976.209 701.138H992.205L984.163 677.188L976.209 701.138ZM1107.71 703.687C1107.21 710.571 1104.66 715.991 1100.06 719.946C1095.49 723.901 1089.46 725.879 1081.96 725.879C1073.76 725.879 1067.3 723.125 1062.58 717.617C1057.89 712.08 1055.55 704.492 1055.55 694.854V690.942C1055.55 684.79 1056.63 679.37 1058.8 674.683C1060.97 669.995 1064.06 666.406 1068.07 663.916C1072.12 661.396 1076.8 660.137 1082.13 660.137C1089.52 660.137 1095.46 662.114 1099.98 666.069C1104.49 670.024 1107.1 675.576 1107.8 682.725H1094.62C1094.29 678.594 1093.14 675.605 1091.14 673.76C1089.18 671.885 1086.18 670.947 1082.13 670.947C1077.74 670.947 1074.44 672.529 1072.25 675.693C1070.08 678.828 1068.97 683.706 1068.91 690.327V695.161C1068.91 702.075 1069.95 707.129 1072.03 710.322C1074.14 713.516 1077.45 715.112 1081.96 715.112C1086.03 715.112 1089.06 714.189 1091.06 712.344C1093.08 710.469 1094.23 707.583 1094.53 703.687H1107.71ZM1206.69 725H1193.51V697.578H1167.8V725H1154.62V661.016H1167.8V686.943H1193.51V661.016H1206.69V725ZM1270.52 725H1257.34V661.016H1270.52V725ZM1373.06 725H1359.88L1334.21 682.9V725H1321.03V661.016H1334.21L1359.92 703.203V661.016H1373.06V725ZM1461.32 697.271H1436.01V714.409H1465.72V725H1422.83V661.016H1465.63V671.694H1436.01V686.943H1461.32V697.271ZM1596.05 701.577H1585.55V725H1572.36V661.016H1596.14C1603.7 661.016 1609.53 662.7 1613.63 666.069C1617.73 669.438 1619.78 674.199 1619.78 680.352C1619.78 684.717 1618.83 688.364 1616.92 691.294C1615.05 694.194 1612.19 696.509 1608.35 698.237L1622.2 724.385V725H1608.05L1596.05 701.577ZM1585.55 690.898H1596.18C1599.49 690.898 1602.05 690.063 1603.87 688.394C1605.69 686.694 1606.6 684.365 1606.6 681.406C1606.6 678.389 1605.73 676.016 1604 674.287C1602.3 672.559 1599.68 671.694 1596.14 671.694H1585.55V690.898ZM1706.59 697.271H1681.28V714.409H1710.98V725H1668.09V661.016H1710.9V671.694H1681.28V686.943H1706.59V697.271ZM1809 725H1795.82L1770.15 682.9V725H1756.97V661.016H1770.15L1795.86 703.203V661.016H1809V725ZM1905.61 671.694H1886.01V725H1872.83V671.694H1853.49V661.016H1905.61V671.694ZM1982.27 711.816H1959.15L1954.76 725H1940.74L1964.56 661.016H1976.77L2000.72 725H1986.71L1982.27 711.816ZM1962.71 701.138H1978.71L1970.67 677.188L1962.71 701.138ZM2058.13 714.409H2086.13V725H2044.95V661.016H2058.13V714.409ZM2190.05 707.773C2190.05 704.814 2190.87 702.075 2192.51 699.556C2194.18 697.036 2197.23 694.238 2201.65 691.162C2199.75 688.613 2198.25 686.226 2197.17 683.999C2196.08 681.743 2195.54 679.399 2195.54 676.968C2195.54 671.987 2197.11 667.944 2200.24 664.839C2203.41 661.704 2207.66 660.137 2212.99 660.137C2217.76 660.137 2221.67 661.558 2224.72 664.399C2227.8 667.241 2229.34 670.786 2229.34 675.034C2229.34 680.132 2226.76 684.629 2221.6 688.525L2216.68 692.085L2227.71 704.917C2229.44 701.519 2230.3 697.769 2230.3 693.667H2241.11C2241.11 701.987 2239.19 708.726 2235.36 713.882L2244.94 725H2230.52L2227.23 721.221C2222.51 724.326 2217.09 725.879 2210.97 725.879C2204.64 725.879 2199.57 724.224 2195.76 720.913C2191.95 717.573 2190.05 713.193 2190.05 707.773ZM2211.58 715.684C2214.63 715.684 2217.51 714.834 2220.24 713.135L2207.63 698.545L2206.7 699.204C2204.1 701.431 2202.79 704.053 2202.79 707.07C2202.79 709.619 2203.6 711.699 2205.21 713.311C2206.85 714.893 2208.97 715.684 2211.58 715.684ZM2206.92 676.792C2206.92 678.989 2208.21 681.758 2210.79 685.098L2214.17 682.856C2215.9 681.743 2217.09 680.659 2217.73 679.604C2218.41 678.55 2218.75 677.29 2218.75 675.825C2218.75 674.36 2218.2 673.086 2217.12 672.002C2216.04 670.918 2214.64 670.376 2212.94 670.376C2211.13 670.376 2209.66 670.962 2208.55 672.134C2207.47 673.306 2206.92 674.858 2206.92 676.792ZM2383.79 708.213C2383.79 705.723 2382.92 703.818 2381.16 702.5C2379.4 701.152 2376.24 699.746 2371.67 698.281C2367.1 696.787 2363.48 695.322 2360.81 693.887C2353.55 689.961 2349.91 684.673 2349.91 678.022C2349.91 674.565 2350.88 671.489 2352.81 668.794C2354.78 666.069 2357.57 663.945 2361.21 662.422C2364.87 660.898 2368.97 660.137 2373.51 660.137C2378.08 660.137 2382.15 660.972 2385.73 662.642C2389.3 664.282 2392.07 666.611 2394.03 669.629C2396.03 672.646 2397.02 676.074 2397.02 679.912H2383.84C2383.84 676.982 2382.92 674.712 2381.07 673.101C2379.22 671.46 2376.63 670.64 2373.29 670.64C2370.07 670.64 2367.56 671.328 2365.78 672.705C2363.99 674.053 2363.1 675.84 2363.1 678.066C2363.1 680.146 2364.14 681.89 2366.22 683.296C2368.33 684.702 2371.42 686.021 2375.49 687.251C2382.99 689.507 2388.45 692.305 2391.88 695.645C2395.31 698.984 2397.02 703.145 2397.02 708.125C2397.02 713.662 2394.93 718.013 2390.74 721.177C2386.55 724.312 2380.91 725.879 2373.82 725.879C2368.9 725.879 2364.42 724.985 2360.37 723.198C2356.33 721.382 2353.24 718.906 2351.1 715.771C2348.99 712.637 2347.94 709.004 2347.94 704.873H2361.16C2361.16 711.934 2365.38 715.464 2373.82 715.464C2376.95 715.464 2379.4 714.834 2381.16 713.574C2382.92 712.285 2383.79 710.498 2383.79 708.213ZM2492.67 661.016V703.159C2492.67 710.161 2490.47 715.698 2486.07 719.771C2481.71 723.843 2475.73 725.879 2468.14 725.879C2460.67 725.879 2454.74 723.901 2450.35 719.946C2445.95 715.991 2443.71 710.557 2443.62 703.643V661.016H2456.81V703.247C2456.81 707.437 2457.8 710.498 2459.79 712.432C2461.82 714.336 2464.6 715.288 2468.14 715.288C2475.56 715.288 2479.32 711.392 2479.44 703.599V661.016H2492.67ZM2554.91 702.456V725H2541.73V661.016H2566.69C2571.49 661.016 2575.71 661.895 2579.34 663.652C2583 665.41 2585.82 667.915 2587.78 671.167C2589.74 674.39 2590.72 678.066 2590.72 682.197C2590.72 688.467 2588.57 693.418 2584.26 697.051C2579.99 700.654 2574.05 702.456 2566.47 702.456H2554.91ZM2554.91 691.777H2566.69C2570.17 691.777 2572.82 690.957 2574.64 689.316C2576.49 687.676 2577.41 685.332 2577.41 682.285C2577.41 679.15 2576.49 676.616 2574.64 674.683C2572.79 672.749 2570.25 671.753 2566.99 671.694H2554.91V691.777ZM2651.25 702.456V725H2638.07V661.016H2663.03C2667.84 661.016 2672.06 661.895 2675.69 663.652C2679.35 665.41 2682.16 667.915 2684.13 671.167C2686.09 674.39 2687.07 678.066 2687.07 682.197C2687.07 688.467 2684.92 693.418 2680.61 697.051C2676.33 700.654 2670.4 702.456 2662.81 702.456H2651.25ZM2651.25 691.777H2663.03C2666.52 691.777 2669.17 690.957 2670.99 689.316C2672.83 687.676 2673.75 685.332 2673.75 682.285C2673.75 679.15 2672.83 676.616 2670.99 674.683C2669.14 672.749 2666.59 671.753 2663.34 671.694H2651.25V691.777ZM2747.6 714.409H2775.59V725H2734.42V661.016H2747.6V714.409ZM2835.46 725H2822.28V661.016H2835.46V725ZM2924.47 697.271H2899.16V714.409H2928.87V725H2885.98V661.016H2928.78V671.694H2899.16V686.943H2924.47V697.271ZM3008.03 708.213C3008.03 705.723 3007.15 703.818 3005.39 702.5C3003.63 701.152 3000.47 699.746 2995.9 698.281C2991.33 696.787 2987.71 695.322 2985.05 693.887C2977.78 689.961 2974.15 684.673 2974.15 678.022C2974.15 674.565 2975.11 671.489 2977.05 668.794C2979.01 666.069 2981.81 663.945 2985.44 662.422C2989.1 660.898 2993.21 660.137 2997.75 660.137C3002.32 660.137 3006.39 660.972 3009.96 662.642C3013.54 664.282 3016.31 666.611 3018.27 669.629C3020.26 672.646 3021.26 676.074 3021.26 679.912H3008.07C3008.07 676.982 3007.15 674.712 3005.3 673.101C3003.46 671.46 3000.87 670.64 2997.53 670.64C2994.3 670.64 2991.8 671.328 2990.01 672.705C2988.22 674.053 2987.33 675.84 2987.33 678.066C2987.33 680.146 2988.37 681.89 2990.45 683.296C2992.56 684.702 2995.65 686.021 2999.72 687.251C3007.22 689.507 3012.69 692.305 3016.12 695.645C3019.54 698.984 3021.26 703.145 3021.26 708.125C3021.26 713.662 3019.16 718.013 3014.97 721.177C3010.78 724.312 3005.14 725.879 2998.05 725.879C2993.13 725.879 2988.65 724.985 2984.61 723.198C2980.56 721.382 2977.47 718.906 2975.33 715.771C2973.22 712.637 2972.17 709.004 2972.17 704.873H2985.4C2985.4 711.934 2989.62 715.464 2998.05 715.464C3001.19 715.464 3003.63 714.834 3005.39 713.574C3007.15 712.285 3008.03 710.498 3008.03 708.213Z" fill="white" fill-opacity="0.45"/>
<path d="M84.3276 351.281C37.8297 351.281 -0.000427246 313.452 -0.000427246 266.953C-0.000427246 220.454 37.8297 182.625 84.3276 182.625H233.91C239.454 182.625 243.95 187.119 243.95 192.664C243.95 198.209 239.454 202.703 233.91 202.703H114.742V253.579C114.742 311.69 139.433 366.867 182.595 405.576H376.492C376.196 405.289 375.893 405.011 375.6 404.719C363.982 393.102 356.672 378.439 355.016 363.429C353.269 347.591 357.933 333.241 368.151 323.023C384.329 306.847 410.603 305.553 433.044 317.845C439.931 297.119 443.429 275.56 443.429 253.579V202.703H324.261C318.716 202.703 314.222 198.209 314.222 192.664C314.222 187.119 318.716 182.625 324.261 182.625H453.469C459.012 182.625 463.508 187.119 463.508 192.664V253.579C463.508 279.974 458.92 305.816 449.888 330.513C461.481 342.124 468.777 356.77 470.431 371.761C471.83 384.441 469.109 396.161 462.729 405.576H503.96C509.505 405.576 513.999 410.071 513.999 415.615C513.999 447.721 487.878 473.842 455.773 473.842H424.646C419.982 496.725 399.699 513.998 375.46 513.998H182.711C158.471 513.998 138.188 496.725 133.525 473.842H102.399C70.292 473.842 44.1724 447.721 44.1724 415.615C44.1724 410.071 48.6669 405.576 54.2115 405.576H154.025C139.005 389.289 126.585 370.977 117.054 351.282H84.3276V351.281ZM374.974 361.228C376.131 371.717 381.395 382.12 389.799 390.522V390.523C398.201 398.924 408.603 404.189 419.093 405.346C422.864 405.763 426.457 405.609 429.788 404.932C430.829 392.425 422.752 380.574 410.201 377.312C393.632 373.008 381.488 360.21 377.192 344.798C375.086 349.571 374.307 355.177 374.974 361.228ZM450.475 373.963C449.317 363.475 444.053 353.071 435.65 344.669C425.751 334.77 413.349 329.555 402.25 329.555C399.99 329.555 397.784 329.777 395.664 330.215C394.6 342.739 402.682 354.615 415.249 357.88C431.817 362.184 443.962 374.982 448.257 390.395C450.362 385.619 451.143 380.014 450.475 373.963V373.963ZM102.399 453.764H142.555C148.099 453.764 152.594 458.258 152.594 463.803C152.594 480.409 166.105 493.92 182.711 493.92H375.46C392.067 493.92 405.577 480.409 405.577 463.803C405.577 458.258 410.073 453.764 415.616 453.764H455.773C473.335 453.764 488.164 441.835 492.581 425.654H65.5907C70.0079 441.835 84.8366 453.764 102.399 453.764ZM84.3276 202.703C48.8998 202.703 20.0777 231.525 20.0777 266.953C20.0777 302.381 48.8998 331.203 84.3276 331.203H108.518C105.614 323.33 103.145 315.289 101.136 307.109H84.3276C62.1855 307.109 44.1714 289.095 44.1714 266.953C44.1714 244.811 62.1855 226.797 84.3276 226.797H94.6638V202.703H84.3276ZM94.6638 246.875H84.3276C73.2565 246.875 64.2495 255.882 64.2495 266.953C64.2495 278.024 73.2565 287.031 84.3276 287.031H97.1856C95.5302 276.034 94.6638 264.859 94.6638 253.579V246.875Z" fill="white"/>
<path d="M205.199 140.474C209.119 144.394 209.119 150.751 205.199 154.672C203.238 156.633 200.669 157.613 198.1 157.613C195.53 157.613 192.962 156.633 191.002 154.672C173.275 136.944 173.275 108.1 191.002 90.3731C195.797 85.5785 198.438 79.2027 198.438 72.4213C198.438 65.6399 195.797 59.2651 191.002 54.4694C187.081 50.5492 187.081 44.1925 191.002 40.2722C194.921 36.352 201.276 36.352 205.2 40.2722C213.787 48.8596 218.518 60.277 218.518 72.4213C218.518 84.5655 213.787 95.9829 205.2 104.57C195.3 114.469 195.3 130.574 205.199 140.474V140.474Z" fill="#C00407"/>
<path d="M367.168 140.475C371.088 144.395 371.088 150.752 367.168 154.673C365.207 156.634 362.638 157.614 360.069 157.614C357.5 157.614 354.931 156.634 352.97 154.673C335.243 136.945 335.243 108.101 352.97 90.3741C362.869 80.4756 362.869 64.3689 352.97 54.4704C349.05 50.5502 349.05 44.1935 352.97 40.2722C356.892 36.352 363.246 36.352 367.169 40.2722C384.896 57.9992 384.896 86.8444 367.169 104.571C357.269 114.47 357.269 130.575 367.168 140.475Z" fill="#C00407"/>
<path d="M286.184 140.475C290.105 144.395 290.105 150.752 286.184 154.672C284.224 156.633 281.656 157.613 279.086 157.613C276.516 157.613 273.948 156.632 271.987 154.672C249.114 131.799 249.114 94.5817 271.987 71.7077C279.275 64.4193 283.289 54.7296 283.289 44.4226C283.289 34.1155 279.275 24.4258 271.987 17.1374C268.067 13.2172 268.067 6.86044 271.987 2.94019C275.907 -0.980062 282.262 -0.980062 286.185 2.94019C297.265 14.0203 303.367 28.7526 303.367 44.4226C303.367 60.0925 297.265 74.8248 286.185 85.9049C271.14 100.95 271.14 125.43 286.184 140.475Z" fill="#C00407"/>
<path d="M279.085 182.629C281.725 182.629 284.315 183.693 286.183 185.56C288.05 187.438 289.124 190.018 289.124 192.668C289.124 195.308 288.051 197.898 286.183 199.766C284.315 201.633 281.725 202.707 279.085 202.707C276.445 202.707 273.855 201.633 271.988 199.766C270.121 197.898 269.046 195.308 269.046 192.668C269.046 190.018 270.12 187.438 271.988 185.56C273.855 183.693 276.445 182.629 279.085 182.629Z" fill="white"/>
<path d="M627.879 325.28C627.879 300.32 633.279 278.12 644.079 258.68C654.879 239 669.879 223.76 689.079 212.96C708.519 201.92 730.479 196.4 754.959 196.4C784.959 196.4 810.639 204.32 831.999 220.16C853.359 236 867.639 257.6 874.839 284.96H807.159C802.119 274.4 794.919 266.36 785.559 260.84C776.439 255.32 765.999 252.56 754.239 252.56C735.279 252.56 719.919 259.16 708.159 272.36C696.399 285.56 690.519 303.2 690.519 325.28C690.519 347.36 696.399 365 708.159 378.2C719.919 391.4 735.279 398 754.239 398C765.999 398 776.439 395.24 785.559 389.72C794.919 384.2 802.119 376.16 807.159 365.6H874.839C867.639 392.96 853.359 414.56 831.999 430.4C810.639 446 784.959 453.8 754.959 453.8C730.479 453.8 708.519 448.4 689.079 437.6C669.879 426.56 654.879 411.32 644.079 391.88C633.279 372.44 627.879 350.24 627.879 325.28ZM1003.98 454.88C984.298 454.88 966.538 450.68 950.698 442.28C935.098 433.88 922.738 421.88 913.618 406.28C904.738 390.68 900.298 372.44 900.298 351.56C900.298 330.92 904.858 312.8 913.978 297.2C923.098 281.36 935.578 269.24 951.418 260.84C967.258 252.44 985.018 248.24 1004.7 248.24C1024.38 248.24 1042.14 252.44 1057.98 260.84C1073.82 269.24 1086.3 281.36 1095.42 297.2C1104.54 312.8 1109.1 330.92 1109.1 351.56C1109.1 372.2 1104.42 390.44 1095.06 406.28C1085.94 421.88 1073.34 433.88 1057.26 442.28C1041.42 450.68 1023.66 454.88 1003.98 454.88ZM1003.98 401.6C1015.74 401.6 1025.7 397.28 1033.86 388.64C1042.26 380 1046.46 367.64 1046.46 351.56C1046.46 335.48 1042.38 323.12 1034.22 314.48C1026.3 305.84 1016.46 301.52 1004.7 301.52C992.698 301.52 982.738 305.84 974.818 314.48C966.898 322.88 962.938 335.24 962.938 351.56C962.938 367.64 966.778 380 974.458 388.64C982.378 397.28 992.218 401.6 1003.98 401.6ZM1242.56 302.24H1209.44V452H1147.88V302.24H1125.56V251.12H1147.88V245.36C1147.88 220.64 1154.96 201.92 1169.12 189.2C1183.28 176.24 1204.04 169.76 1231.4 169.76C1235.96 169.76 1239.32 169.88 1241.48 170.12V222.32C1229.72 221.6 1221.44 223.28 1216.64 227.36C1211.84 231.44 1209.44 238.76 1209.44 249.32V251.12H1242.56V302.24ZM1372.28 302.24H1339.16V452H1277.6V302.24H1255.28V251.12H1277.6V245.36C1277.6 220.64 1284.68 201.92 1298.84 189.2C1313 176.24 1333.76 169.76 1361.12 169.76C1365.68 169.76 1369.04 169.88 1371.2 170.12V222.32C1359.44 221.6 1351.16 223.28 1346.36 227.36C1341.56 231.44 1339.16 238.76 1339.16 249.32V251.12H1372.28V302.24ZM1590.57 348.32C1590.57 354.08 1590.21 360.08 1589.49 366.32H1450.17C1451.13 378.8 1455.09 388.4 1462.05 395.12C1469.25 401.6 1478.01 404.84 1488.33 404.84C1503.69 404.84 1514.37 398.36 1520.37 385.4H1585.89C1582.53 398.6 1576.41 410.48 1567.53 421.04C1558.89 431.6 1547.97 439.88 1534.77 445.88C1521.57 451.88 1506.81 454.88 1490.49 454.88C1470.81 454.88 1453.29 450.68 1437.93 442.28C1422.57 433.88 1410.57 421.88 1401.93 406.28C1393.29 390.68 1388.97 372.44 1388.97 351.56C1388.97 330.68 1393.17 312.44 1401.57 296.84C1410.21 281.24 1422.21 269.24 1437.57 260.84C1452.93 252.44 1470.57 248.24 1490.49 248.24C1509.93 248.24 1527.21 252.32 1542.33 260.48C1557.45 268.64 1569.21 280.28 1577.61 295.4C1586.25 310.52 1590.57 328.16 1590.57 348.32ZM1527.57 332.12C1527.57 321.56 1523.97 313.16 1516.77 306.92C1509.57 300.68 1500.57 297.56 1489.77 297.56C1479.45 297.56 1470.69 300.56 1463.49 306.56C1456.53 312.56 1452.21 321.08 1450.53 332.12H1527.57ZM1812.41 348.32C1812.41 354.08 1812.05 360.08 1811.33 366.32H1672.01C1672.97 378.8 1676.93 388.4 1683.89 395.12C1691.09 401.6 1699.85 404.84 1710.17 404.84C1725.53 404.84 1736.21 398.36 1742.21 385.4H1807.73C1804.37 398.6 1798.25 410.48 1789.37 421.04C1780.73 431.6 1769.81 439.88 1756.61 445.88C1743.41 451.88 1728.65 454.88 1712.33 454.88C1692.65 454.88 1675.13 450.68 1659.77 442.28C1644.41 433.88 1632.41 421.88 1623.77 406.28C1615.13 390.68 1610.81 372.44 1610.81 351.56C1610.81 330.68 1615.01 312.44 1623.41 296.84C1632.05 281.24 1644.05 269.24 1659.41 260.84C1674.77 252.44 1692.41 248.24 1712.33 248.24C1731.77 248.24 1749.05 252.32 1764.17 260.48C1779.29 268.64 1791.05 280.28 1799.45 295.4C1808.09 310.52 1812.41 328.16 1812.41 348.32ZM1749.41 332.12C1749.41 321.56 1745.81 313.16 1738.61 306.92C1731.41 300.68 1722.41 297.56 1711.61 297.56C1701.29 297.56 1692.53 300.56 1685.33 306.56C1678.37 312.56 1674.05 321.08 1672.37 332.12H1749.41Z" fill="#C00407"/>
<path d="M2012.61 454.52C1994.13 454.52 1977.57 451.52 1962.93 445.52C1948.29 439.52 1936.53 430.64 1927.65 418.88C1919.01 407.12 1914.45 392.96 1913.97 376.4H1979.49C1980.45 385.76 1983.69 392.96 1989.21 398C1994.73 402.8 2001.93 405.2 2010.81 405.2C2019.93 405.2 2027.13 403.16 2032.41 399.08C2037.69 394.76 2040.33 388.88 2040.33 381.44C2040.33 375.2 2038.17 370.04 2033.85 365.96C2029.77 361.88 2024.61 358.52 2018.37 355.88C2012.37 353.24 2003.73 350.24 1992.45 346.88C1976.13 341.84 1962.81 336.8 1952.49 331.76C1942.17 326.72 1933.29 319.28 1925.85 309.44C1918.41 299.6 1914.69 286.76 1914.69 270.92C1914.69 247.4 1923.21 229.04 1940.25 215.84C1957.29 202.4 1979.49 195.68 2006.85 195.68C2034.69 195.68 2057.13 202.4 2074.17 215.84C2091.21 229.04 2100.33 247.52 2101.53 271.28H2034.93C2034.45 263.12 2031.45 256.76 2025.93 252.2C2020.41 247.4 2013.33 245 2004.69 245C1997.25 245 1991.25 247.04 1986.69 251.12C1982.13 254.96 1979.85 260.6 1979.85 268.04C1979.85 276.2 1983.69 282.56 1991.37 287.12C1999.05 291.68 2011.05 296.6 2027.37 301.88C2043.69 307.4 2056.89 312.68 2066.97 317.72C2077.29 322.76 2086.17 330.08 2093.61 339.68C2101.05 349.28 2104.77 361.64 2104.77 376.76C2104.77 391.16 2101.05 404.24 2093.61 416C2086.41 427.76 2075.85 437.12 2061.93 444.08C2048.01 451.04 2031.57 454.52 2012.61 454.52ZM2204.21 279.56C2210.21 270.2 2218.49 262.64 2229.05 256.88C2239.61 251.12 2251.97 248.24 2266.13 248.24C2282.69 248.24 2297.69 252.44 2311.13 260.84C2324.57 269.24 2335.13 281.24 2342.81 296.84C2350.73 312.44 2354.69 330.56 2354.69 351.2C2354.69 371.84 2350.73 390.08 2342.81 405.92C2335.13 421.52 2324.57 433.64 2311.13 442.28C2297.69 450.68 2282.69 454.88 2266.13 454.88C2252.21 454.88 2239.85 452 2229.05 446.24C2218.49 440.48 2210.21 433.04 2204.21 423.92V547.76H2142.65V251.12H2204.21V279.56ZM2292.05 351.2C2292.05 335.84 2287.73 323.84 2279.09 315.2C2270.69 306.32 2260.25 301.88 2247.77 301.88C2235.53 301.88 2225.09 306.32 2216.45 315.2C2208.05 324.08 2203.85 336.2 2203.85 351.56C2203.85 366.92 2208.05 379.04 2216.45 387.92C2225.09 396.8 2235.53 401.24 2247.77 401.24C2260.01 401.24 2270.45 396.8 2279.09 387.92C2287.73 378.8 2292.05 366.56 2292.05 351.2ZM2374.75 351.2C2374.75 330.56 2378.59 312.44 2386.27 296.84C2394.19 281.24 2404.87 269.24 2418.31 260.84C2431.75 252.44 2446.75 248.24 2463.31 248.24C2477.47 248.24 2489.83 251.12 2500.39 256.88C2511.19 262.64 2519.47 270.2 2525.23 279.56V251.12H2586.79V452H2525.23V423.56C2519.23 432.92 2510.83 440.48 2500.03 446.24C2489.47 452 2477.11 454.88 2462.95 454.88C2446.63 454.88 2431.75 450.68 2418.31 442.28C2404.87 433.64 2394.19 421.52 2386.27 405.92C2378.59 390.08 2374.75 371.84 2374.75 351.2ZM2525.23 351.56C2525.23 336.2 2520.91 324.08 2512.27 315.2C2503.87 306.32 2493.55 301.88 2481.31 301.88C2469.07 301.88 2458.63 306.32 2449.99 315.2C2441.59 323.84 2437.39 335.84 2437.39 351.2C2437.39 366.56 2441.59 378.8 2449.99 387.92C2458.63 396.8 2469.07 401.24 2481.31 401.24C2493.55 401.24 2503.87 396.8 2512.27 387.92C2520.91 379.04 2525.23 366.92 2525.23 351.56ZM2619.09 351.56C2619.09 330.68 2623.29 312.44 2631.69 296.84C2640.33 281.24 2652.21 269.24 2667.33 260.84C2682.69 252.44 2700.21 248.24 2719.89 248.24C2745.09 248.24 2766.09 254.84 2782.89 268.04C2799.93 281.24 2811.09 299.84 2816.37 323.84H2750.85C2745.33 308.48 2734.65 300.8 2718.81 300.8C2707.53 300.8 2698.53 305.24 2691.81 314.12C2685.09 322.76 2681.73 335.24 2681.73 351.56C2681.73 367.88 2685.09 380.48 2691.81 389.36C2698.53 398 2707.53 402.32 2718.81 402.32C2734.65 402.32 2745.33 394.64 2750.85 379.28H2816.37C2811.09 402.8 2799.93 421.28 2782.89 434.72C2765.85 448.16 2744.85 454.88 2719.89 454.88C2700.21 454.88 2682.69 450.68 2667.33 442.28C2652.21 433.88 2640.33 421.88 2631.69 406.28C2623.29 390.68 2619.09 372.44 2619.09 351.56ZM3038.66 348.32C3038.66 354.08 3038.3 360.08 3037.58 366.32H2898.26C2899.22 378.8 2903.18 388.4 2910.14 395.12C2917.34 401.6 2926.1 404.84 2936.42 404.84C2951.78 404.84 2962.46 398.36 2968.46 385.4H3033.98C3030.62 398.6 3024.5 410.48 3015.62 421.04C3006.98 431.6 2996.06 439.88 2982.86 445.88C2969.66 451.88 2954.9 454.88 2938.58 454.88C2918.9 454.88 2901.38 450.68 2886.02 442.28C2870.66 433.88 2858.66 421.88 2850.02 406.28C2841.38 390.68 2837.06 372.44 2837.06 351.56C2837.06 330.68 2841.26 312.44 2849.66 296.84C2858.3 281.24 2870.3 269.24 2885.66 260.84C2901.02 252.44 2918.66 248.24 2938.58 248.24C2958.02 248.24 2975.3 252.32 2990.42 260.48C3005.54 268.64 3017.3 280.28 3025.7 295.4C3034.34 310.52 3038.66 328.16 3038.66 348.32ZM2975.66 332.12C2975.66 321.56 2972.06 313.16 2964.86 306.92C2957.66 300.68 2948.66 297.56 2937.86 297.56C2927.54 297.56 2918.78 300.56 2911.58 306.56C2904.62 312.56 2900.3 321.08 2898.62 332.12H2975.66Z" fill="white"/>
<circle cx="142.999" cy="706" r="16" fill="#C00407"/>
<circle cx="3095" cy="690" r="16" fill="#C00407"/>
</svg>
